# xmcd CD database file
#
# Track frame offsets:
#	150
#	21117
#	38670
#	62230
#	80197
#	99292
#	125850
#	138560
#	158415
#
# Disc length: 2634 seconds
#
# Revision: 5
# Processed by: cddbd v1.5.2PL0 Copyright (c) Steve Scherf et al.
# Submitted via: CDex 1.51
#
DISCID=740a4809
DTITLE=Prince and The Revolution - Music From Purple Rain
DYEAR=1984
DGENRE=Funk
TTITLE0=Let's Go Crazy
TTITLE1=Take Me With U
TTITLE2=The Beautiful Ones
TTITLE3=Computer Blue
TTITLE4=Darling Nikki
TTITLE5=When Doves Cry
TTITLE6=I Would Die 4 U
TTITLE7=Baby I'm A Star
TTITLE8=Purple Rain
EXTD=YEAR: 1984
EXTT0=
EXTT1=
EXTT2=
EXTT3=
EXTT4=
EXTT5=
EXTT6=
EXTT7=
EXTT8=
PLAYORDER=
